<svg xmlns="http://www.w3.org/2000/svg" xmlns:xlink="http://www.w3.org/1999/xlink" version="1.1" width="332pt" height="548pt" viewBox="0 0 332 548">
<defs>
<clipPath id="clip_0">
<path transform="matrix(1,0,0,-1,0,548)" d="M0 0H332V548H0Z"/>
</clipPath>
<clipPath id="clip_1">
<path transform="matrix(1,0,0,-1,0,548)" d="M0 0H332V548H0Z"/>
</clipPath>
<clipPath id="clip_2">
<path transform="matrix(1,0,0,-1,0,548)" d="M49.55661 458.2947H125.67228V491.7586H49.55661Z"/>
</clipPath>
<clipPath id="clip_3">
<path transform="matrix(1,0,0,-1,0,548)" d="M288.3594 304.7374H313.0124V330.2479H288.3594Z"/>
</clipPath>
<clipPath id="clip_4">
<path transform="matrix(1,0,0,-1,0,548)" d="M284.3471 221.4436H315.03044V252.82643H284.3471Z"/>
</clipPath>
<clipPath id="clip_5">
<path transform="matrix(1,0,0,-1,0,548)" d="M284.5741 275.484H315.25743V306.86686H284.5741Z"/>
</clipPath>
<clipPath id="clip_6">
<path transform="matrix(1,0,0,-1,0,548)" d="M120.3032 464.1164H150.98651V495.49925H120.3032Z"/>
</clipPath>
<clipPath id="clip_7">
<path transform="matrix(1,0,0,-1,0,548)" d="M289.0021 252.4441H309.0021V276.35923H289.0021Z"/>
</clipPath>
<clipPath id="clip_8">
<path transform="matrix(1,0,0,-1,0,548)" d="M288.653 196.9961H310.6792V222.34914H288.653Z"/>
</clipPath>
<clipPath id="clip_9">
<path transform="matrix(1,0,0,-1,0,548)" d="M292.2454 168.8655H312.55076V195.70989H292.2454Z"/>
</clipPath>
<clipPath id="clip_10">
<path transform="matrix(1,0,0,-1,0,548)" d="M288.7802 144.309H309.20033V167.59709H288.7802Z"/>
</clipPath>
<clipPath id="clip_11">
<path transform="matrix(1,0,0,-1,0,548)" d="M289.8479 113.2929H309.8479V141.39922H289.8479Z"/>
</clipPath>
<clipPath id="clip_12">
<path transform="matrix(1,0,0,-1,0,548)" d="M143.0758 468.222H179.69576V491.49925H143.0758Z"/>
</clipPath>
<clipPath id="clip_13">
<path transform="matrix(1,0,0,-1,0,548)" d="M0 0H332V548H0Z"/>
</clipPath>
<clipPath id="clip_14">
<path transform="matrix(1,0,0,-1,0,548)" d="M0 0H332V548H0Z"/>
</clipPath>
<clipPath id="clip_15">
<path transform="matrix(1,0,0,-1,0,548)" d="M248 37H277V94H248Z"/>
</clipPath>
<clipPath id="clip_16">
<path transform="matrix(1,0,0,-1,0,548)" d="M0 0H332V548H0Z"/>
</clipPath>
<clipPath id="clip_17">
<path transform="matrix(1,0,0,-1,0,548)" d="M0 0H332V548H0Z"/>
</clipPath>
<clipPath id="clip_18">
<path transform="matrix(1,0,0,-1,0,548)" d="M242 32H283V99H242Z"/>
</clipPath>
<clipPath id="clip_19">
<path transform="matrix(1,0,0,-1,0,548)" d="M0 0H332V548H0Z"/>
</clipPath>
</defs>
<g>
<g>
<g clip-path="url(#clip_0)">
<g clip-path="url(#clip_1)">
<path transform="matrix(1,0,0,-1,0,548)" d="M.3337687 548H331.6662C331.8506 548 332 547.8374 332 547.6369V.3631059C332 .1625681 331.8506 0 331.6662 0H.3337687C.1494333 0 0 .1625681 0 .3631059V547.6369C0 547.8374 .1494333 548 .3337687 548Z"/>
<path transform="matrix(1,0,0,-1,0,548)" d="M80.77154 265.6469H53.45661V467.143H171.4643V400.6372" fill-opacity="0"/>
<path stroke-width="2.00823" stroke-linecap="butt" stroke-miterlimit="10" stroke-linejoin="miter" fill="none" stroke="#ffffff" d="M80.77154 282.3531H53.45661V80.85699H171.4643V147.3628"/>
<path transform="matrix(1,0,0,-1,0,548)" d="M238.9142 338.4417H280.505V108.7537H146.4475V174.065" fill-opacity="0"/>
<path stroke-width="2.00823" stroke-linecap="butt" stroke-miterlimit="10" stroke-linejoin="miter" fill="none" stroke="#ffffff" d="M238.9142 209.5583H280.505V439.2463H146.4475V373.935"/>
<path transform="matrix(1,0,0,-1,0,548)" d="M121.997 248.5847C129.0692 262.6895 158.232 266.6685 158.232 266.6685 152.7532 258.0515 150.527 253.1728 150.527 253.1728 163.2212 252.1012 184.4418 279.9466 184.4418 279.9466 184.8568 277.403 185.9518 275.1942 185.9518 275.1942 185.9518 275.1942 198.47 290.2557 198.6241 299.3109 198.6241 299.3109 201.9805 293.1428 203.3956 286.4403 203.3956 286.4403 209.1869 295.4388 206.5837 316.7787 206.5837 316.7787 211.8154 317.712 217.7134 303.8555 217.7134 303.8555 224.4214 320.6398 209.007 334.0034 209.007 334.0034 218.0276 334.0172 223.9334 328.0381 223.9334 328.0381 227.3071 339.2464 204.6209 353.5089 204.6209 353.5089 212.9731 361.0473 216.7706 366.322 216.7706 366.322 211.1114 365.438 196.6207 366.2915 196.6207 366.2915 211.4886 373.1421 217.4764 380.779 217.4764 380.779 220.0409 381.5638 233.1141 386.0744L236.7264 379.748 226.0806 369.4462 228.7946 361.0748 241.6428 360.9291 243.5658 354.9094 232.3934 346.4343 232.5343 341.1623 246.3631 335.2719 246.6025 331.1466 232.6344 325.8216 232.6258 317.6404 245.6501 311.4273 245.3233 305.0035 228.9825 305.0647 225.9888 297.9445 237.2071 288.4492 233.6367 281.4228 220.5638 285.6121 215.4851 278.7113 224.6989 267.052 219.735 261.4233 208.4305 267.5955 200.4145 260.7396 206.4423 249.2893 200.3867 244.1732 189.4616 253.9568 182.446 250.6171 182.5547 237.4817 176.3411 235.2424 167.8964 245.7877 159.2022 244.8978 159.1121 229.8991 148.9034 230.157 145.1039 242.0093 135.7405 242.7091 131.7015 230.7009 123.7578 231.4089 123.3856 246.54C122.9639 247.5764 121.997 248.5847 121.997 248.5847Z" fill-opacity="0"/>
<path stroke-width="2.01" stroke-linecap="butt" stroke-miterlimit="10" stroke-linejoin="miter" fill="none" stroke="#2f9b16" d="M121.997 299.4153C129.0692 285.3105 158.232 281.3315 158.232 281.3315 152.7532 289.9485 150.527 294.8272 150.527 294.8272 163.2212 295.8988 184.4418 268.0534 184.4418 268.0534 184.8568 270.597 185.9518 272.8058 185.9518 272.8058 185.9518 272.8058 198.47 257.7443 198.6241 248.6891 198.6241 248.6891 201.9805 254.8572 203.3956 261.5597 203.3956 261.5597 209.1869 252.5612 206.5837 231.2213 206.5837 231.2213 211.8154 230.288 217.7134 244.1445 217.7134 244.1445 224.4214 227.3602 209.007 213.9966 209.007 213.9966 218.0276 213.9828 223.9334 219.9619 223.9334 219.9619 227.3071 208.7536 204.6209 194.4911 204.6209 194.4911 212.9731 186.9527 216.7706 181.678 216.7706 181.678 211.1114 182.562 196.6207 181.7085 196.6207 181.7085 211.4886 174.8579 217.4764 167.221 217.4764 167.221 220.0409 166.4362 233.1141 161.9256L236.7264 168.252 226.0806 178.5538 228.7946 186.9252 241.6428 187.0709 243.5658 193.0906 232.3934 201.5657 232.5343 206.8377 246.3631 212.7281 246.6025 216.8534 232.6344 222.1784 232.6258 230.3596 245.6501 236.5727 245.3233 242.9965 228.9825 242.9353 225.9888 250.0555 237.2071 259.5508 233.6367 266.5772 220.5638 262.3879 215.4851 269.2887 224.6989 280.948 219.735 286.5767 208.4305 280.4045 200.4145 287.2604 206.4423 298.7107 200.3867 303.8268 189.4616 294.0432 182.446 297.3829 182.5547 310.5183 176.3411 312.7576 167.8964 302.2123 159.2022 303.1022 159.1121 318.1009 148.9034 317.843 145.1039 305.9907 135.7405 305.2909 131.7015 317.2991 123.7578 316.5911 123.3856 301.46C122.9639 300.4236 121.997 299.4153 121.997 299.4153Z"/>
<path transform="matrix(1,0,0,-1,0,548)" d="M169.9551 348.3724C169.9551 348.3724 171.3737 353.5477 182.4621 353.7133 192.1482 353.8578 199.1271 351.0789 205.4594 347.8503 215.3047 342.8305 218.7779 335.3944 218.7779 335.3944 207.3924 339.4917 201.9142 335.8363 201.9142 335.8363 216.0348 324.5246 215.6951 314.2888 215.6951 314.2888 209.71 322.85 202.6406 319.5181 202.6406 319.5181 204.8019 305.3501 203.3101 297.531 203.3101 297.531 202.5996 299.1635 201.4347 301.2199 200.5234 302.7971 198.1981 306.8212 195.3796 309.6941 195.3796 309.6941 195.3835 308.0301 195.4791 302.2901 195.1253 298.1379 194.9817 296.4528 193.2124 291.0563 191.0651 287.9653 190.0536 286.5093 187.3766 282.5342 187.3766 282.5342 186.9837 284.2307 185.9316 287.0481 185.9316 287.0481 170.8831 267.1374 158.7259 259.9266 158.7259 259.9266 161.0546 264.3849 164.5206 270.6231 164.5206 270.6231 161.5854 271.3224 149.13 269.5439 149.13 269.5439 126.4416 269.7376 110.4565 262.9364 105.3133 250.7562 92.35497 220.0687 125.5174 188.7046 125.5174 188.7046 111.1515 196.6016 88.67029 215.8807 94.12613 247.2116 97.99063 269.404 116.646 277.9236 151.2873 281.6549 161.503 282.7553 182.6953 285.0993 187.2965 315.1001 189.3277 328.3444 186.1343 335.2596 182.537 340.0939L176.7255 341.0383C176.7255 341.0383 172.0809 343.3185 169.9551 348.3724Z" fill-opacity="0"/>
<path stroke-width="2.01" stroke-linecap="butt" stroke-miterlimit="10" stroke-linejoin="miter" fill="none" stroke="#ffffff" d="M169.9551 199.6276C169.9551 199.6276 171.3737 194.4523 182.4621 194.2867 192.1482 194.1422 199.1271 196.9211 205.4594 200.1497 215.3047 205.1695 218.7779 212.6056 218.7779 212.6056 207.3924 208.5083 201.9142 212.1637 201.9142 212.1637 216.0348 223.4754 215.6951 233.7112 215.6951 233.7112 209.71 225.15 202.6406 228.4819 202.6406 228.4819 204.8019 242.6499 203.3101 250.469 203.3101 250.469 202.5996 248.8365 201.4347 246.7801 200.5234 245.2029 198.1981 241.1788 195.3796 238.3059 195.3796 238.3059 195.3835 239.9699 195.4791 245.7099 195.1253 249.8621 194.9817 251.5472 193.2124 256.9437 191.0651 260.0347 190.0536 261.4907 187.3766 265.4658 187.3766 265.4658 186.9837 263.7693 185.9316 260.9519 185.9316 260.9519 170.8831 280.8626 158.7259 288.0734 158.7259 288.0734 161.0546 283.6151 164.5206 277.3769 164.5206 277.3769 161.5854 276.6776 149.13 278.4561 149.13 278.4561 126.4416 278.2624 110.4565 285.0636 105.3133 297.2438 92.35497 327.9313 125.5174 359.2954 125.5174 359.2954 111.1515 351.3984 88.67029 332.1193 94.12613 300.7884 97.99063 278.596 116.646 270.0764 151.2873 266.3451 161.503 265.2447 182.6953 262.9007 187.2965 232.8999 189.3277 219.6556 186.1343 212.7404 182.537 207.9061L176.7255 206.9617C176.7255 206.9617 172.0809 204.6815 169.9551 199.6276Z"/>
<path transform="matrix(1,0,0,-1,0,548)" d="M71.73435 359.1627C73.30431 359.1066 72.93986 358.4057 74.47244 358.1628 74.47244 358.1628 73.58466 355.7611 71.92125 355.9106 70.94499 355.9984 69.77191 356.976 69.59435 357.5553 69.59435 357.5553 70.66791 359.2008 71.73435 359.1627Z" fill-opacity="0"/>
<path stroke-width="2.00823" stroke-linecap="butt" stroke-miterlimit="10" stroke-linejoin="miter" fill="none" stroke="#ffffff" d="M71.73435 188.8373C73.30431 188.8934 72.93986 189.5943 74.47244 189.8372 74.47244 189.8372 73.58466 192.2389 71.92125 192.0894 70.94499 192.0016 69.77191 191.024 69.59435 190.4447 69.59435 190.4447 70.66791 188.7992 71.73435 188.8373Z"/>
<path transform="matrix(1,0,0,-1,0,548)" d="M133.6299 379.1764C134.9639 380.5359 136.3561 382.2827 137.541 383.5952 140.0874 386.4157 141.9259 388.393 141.9259 388.393 144.3956 389.219 146.8987 390.2865 146.8987 390.2865L149.4456 389.3338C147.0528 378.8055 133.6299 379.1764 133.6299 379.1764Z" fill-opacity="0"/>
<path stroke-width="2.00823" stroke-linecap="butt" stroke-miterlimit="10" stroke-linejoin="miter" fill="none" stroke="#ffffff" d="M133.6299 168.8236C134.9639 167.4641 136.3561 165.7173 137.541 164.4048 140.0874 161.5843 141.9259 159.607 141.9259 159.607 144.3956 158.781 146.8987 157.7135 146.8987 157.7135L149.4456 158.6662C147.0528 169.1945 133.6299 168.8236 133.6299 168.8236Z"/>
<path transform="matrix(1,0,0,-1,0,548)" d="M174.8731 404.0189C174.8731 404.0189 189.3742 412.0382 193.1952 414.6767 208.125 424.9862 227.8734 456.2912 227.8734 456.2912 214.2918 419.1547 199.7684 407.3191 199.7684 407.3191 185.5955 400.8475 174.8731 404.0189 174.8731 404.0189Z" fill-opacity="0"/>
<path stroke-width="2.00823" stroke-linecap="butt" stroke-miterlimit="10" stroke-linejoin="miter" fill="none" stroke="#737373" d="M174.8731 143.9811C174.8731 143.9811 189.3742 135.9618 193.1952 133.3233 208.125 123.0138 227.8734 91.70885 227.8734 91.70885 214.2918 128.8453 199.7684 140.6809 199.7684 140.6809 185.5955 147.1525 174.8731 143.9811 174.8731 143.9811Z"/>
<path transform="matrix(1,0,0,-1,0,548)" d="M64.3713 347.3505C58.93645 356.0772 68.49157 370.1363 68.49157 370.1363 69.60587 366.9977 71.58199 364.9535 71.58199 364.9535 72.0602 375.5218 76.64911 379.7438 76.64911 379.7438 77.60725 369.9948 81.3639 366.9105 81.3639 366.9105 98.96444 367.5448 113.9194 375.1245 124.5433 383.0784 135.4103 391.2144 141.7123 400.0959 141.7123 400.0959 146.8465 402.0021 154.3024 402.5849 154.3024 402.5849 172.9508 400.4644 193.0241 397.4107 202.4712 404.3768 216.0055 414.3567 224.3032 428.533 224.3032 428.533 221.5208 413.4376 217.9023 407.2213 217.9023 407.2213 231.4414 415.1324 238.3209 421.5285 238.3209 421.5285 252.3402 434.1719 270.7218 457.4526 270.7218 457.4526 258.4194 432.413 248.4177 420.4794 235.2936 405.4047 229.5125 398.7643 219.7802 391.6795 219.7802 391.6795 232.9267 396.6159 251.1621 412.8173 251.1621 412.8173 237.0136 389.7076 215.7422 383.8994 215.7422 383.8994 195.8768 380.0936 180.9022 380.7017 180.9022 380.7017 198.5026 376.0256 209.5713 377.5665 209.5713 377.5665 209.3217 377.3715 198.7006 369.8392 190.9015 367.5111 188.4867 366.7902 175.3164 367.5111 168.5459 370.3102 160.7032 373.5527 156.8378 373.9771 156.8378 373.9771 144.1656 370.6462 135.7932 361.7547 135.687 361.7191 97.88358 349.0426 85.01953 350.3036 85.01953 350.3036 81.42908 349.8917 81.9068 341.4185 81.9068 341.4185 78.63694 341.363 75.90623 348.5494 75.90623 348.5494 68.78734 347.0252 64.3713 347.3505 64.3713 347.3505Z" fill-opacity="0"/>
<path stroke-width="2.00823" stroke-linecap="butt" stroke-miterlimit="10" stroke-linejoin="miter" fill="none" stroke="#ffffff" d="M64.3713 200.6495C58.93645 191.9228 68.49157 177.8637 68.49157 177.8637 69.60587 181.0023 71.58199 183.0465 71.58199 183.0465 72.0602 172.4782 76.64911 168.2562 76.64911 168.2562 77.60725 178.0052 81.3639 181.0895 81.3639 181.0895 98.96444 180.4552 113.9194 172.8755 124.5433 164.9216 135.4103 156.7856 141.7123 147.9041 141.7123 147.9041 146.8465 145.9979 154.3024 145.4151 154.3024 145.4151 172.9508 147.5356 193.0241 150.5893 202.4712 143.6232 216.0055 133.6433 224.3032 119.467 224.3032 119.467 221.5208 134.5624 217.9023 140.7787 217.9023 140.7787 231.4414 132.8676 238.3209 126.4715 238.3209 126.4715 252.3402 113.8281 270.7218 90.54739 270.7218 90.54739 258.4194 115.587 248.4177 127.5206 235.2936 142.5953 229.5125 149.2357 219.7802 156.3205 219.7802 156.3205 232.9267 151.3841 251.1621 135.1827 251.1621 135.1827 237.0136 158.2924 215.7422 164.1006 215.7422 164.1006 195.8768 167.9064 180.9022 167.2983 180.9022 167.2983 198.5026 171.9744 209.5713 170.4335 209.5713 170.4335 209.3217 170.6285 198.7006 178.1608 190.9015 180.4889 188.4867 181.2098 175.3164 180.4889 168.5459 177.6898 160.7032 174.4473 156.8378 174.0229 156.8378 174.0229 144.1656 177.3538 135.7932 186.2453 135.687 186.2809 97.88358 198.9574 85.01953 197.6964 85.01953 197.6964 81.42908 198.1083 81.9068 206.5815 81.9068 206.5815 78.63694 206.637 75.90623 199.4506 75.90623 199.4506 68.78734 200.9748 64.3713 200.6495 64.3713 200.6495Z"/>
<path transform="matrix(1,0,0,-1,0,548)" d="M174.6148 335.3218 180.4603 337.3212 182.3141 334.0398 177.6855 330.6189 178.6421 327.3265 184.715 326.6886 184.8561 323.3312 178.9267 320.9479 179.0724 316.7012 183.9533 315.093 183.1824 311.4124 177.907 311.1404 176.0792 307.0629 180.6025 303.1082 178.3038 299.7269 173.9235 302.0002 170.4191 298.2345 173.5231 293.682 172.3444 292.4248 171.2023 291.1524 166.4742 295.1676 162.8788 292.9933 163.905 287.6212 159.7109 286.1939 157.0723 291.9041 152.7311 291.1181 151.6364 285.2555 148.8799 284.2981 146.052 291.0136C103.8774 283.87 92.51814 264.888 92.51814 264.888 85.96025 256.0735 85.68725 237.2451 93.4538 218.5271 108.2102 182.963 155.4339 174.5914 155.4339 174.5914 140.1413 172.175 125.1594 180.1147 125.1594 180.1147 127.0579 175.2452 133.1143 169.3461 133.1143 169.3461 124.7701 171.5055 109.9125 187.2285 109.9125 187.2285 109.6866 182.4335 112.1906 176.0992 112.1906 176.0992 106.2137 181.6036 97.30057 199.8754 97.30057 199.8754 95.02455 194.2088 97.18041 185.7757 97.18041 185.7757 90.53695 197.9017 89.6085 215.9349 89.6085 215.9349 84.52258 212.3678 84.80085 202.6361 84.80085 202.6361 78.70754 212.9349 82.75297 233.0705 82.75297 233.0705 77.2846 229.8265 74.87481 222.0411 74.87481 222.0411 71.53818 236.9941 82.69258 253.5611 82.69258 253.5611 75.09935 251.4945 70.83542 246.6388 70.83542 246.6388 71.56977 257.7873 87.8108 274.0687 87.8108 274.0687 80.69376 275.7603 74.03057 269.9222 74.03057 269.9222 86.69047 288.6627 103.5827 287.8479 103.5827 287.8479 98.3063 296.3382 93.87131 308.7399 93.87131 308.7399 98.44861 301.3111 102.6135 298.0619 105.9524 296.1335 112.9684 292.0815 124.6327 293.0988 124.6327 293.0988 113.5361 305.2434 111.6674 317.1531 111.6674 317.1531 117.563 305.0621 123.2237 302.0215 130.1808 299.9448 134.2477 298.7308 142.9658 299.7607 142.9658 299.7607 137.4498 305.193 134.9102 316.7496 134.9102 316.7496 142.3037 301.8752 158.3851 305.9848 158.3851 305.9848 154.3798 310.8117 153.8551 314.4896 153.8551 314.4896 156.9689 309.3191 160.2164 307.9445 162.3709 308.4181 172.4606 310.6359 168.003 320.7014 165.3747 323.5801 165.2002 323.7713 163.0821 324.9101 163.0821 324.9101 165.3393 324.7097 168.1966 324.8225 168.8076 325.7256 172.8842 331.7511 164.777 332.503 159.4585 331.7835 159.4585 331.7835 160.8676 333.9639 161.159 334.8057 161.5521 335.941 161.7046 338.0002 161.134 338.4888 158.7691 340.514 153.7036 342.7435 148.4355 340.0891 145.834 338.7784 144.1982 336.8806 143.4264 334.2292 143.4264 334.2292 140.5508 339.6452 132.4651 339.4237 123.4445 339.1767 121.6876 331.47 121.6876 331.47 111.8995 343.8185 104.2774 329.8652 104.2774 329.8652 99.07415 336.4755 90.32385 331.1636 87.66817 330.2567 81.92277 328.2945 78.04729 328.9553 73.53792 331.8271 67.84906 335.4502 65.23538 342.6157 65.23538 342.6157 69.77049 342.8543 73.99433 344.2808 73.99433 344.2808 79.12126 336.2634 84.4294 337.9735 84.4294 337.9735 84.4294 337.9735 84.85641 341.4605 85.36641 343.7323 85.85874 345.9254 87.09649 346.5595 87.09649 346.5595 89.10084 345.167 91.50607 344.6395 91.50607 344.6395 104.2299 347.4942 137.4394 358.4421 137.4394 358.4421 149.2268 369.793 157.298 370.3894 157.298 370.3894 187.2195 360.1187 209.4094 362.3911 209.4094 362.3911 209.1294 362.1052 206.2211 357.2304 198.1423 356.771 187.6858 356.1765 169.0824 357.0963 169.0824 357.0963 162.9882 352.8991 163.1434 350.1061 163.1434 350.1061 167.2979 345.0349 174.6148 335.3218 174.6148 335.3218Z" fill-opacity="0"/>
<path stroke-width="2.00823" stroke-linecap="butt" stroke-miterlimit="10" stroke-linejoin="miter" fill="none" stroke="#ffffff" d="M174.6148 212.6782 180.4603 210.6788 182.3141 213.9602 177.6855 217.3811 178.6421 220.6735 184.715 221.3114 184.8561 224.6688 178.9267 227.0521 179.0724 231.2988 183.9533 232.907 183.1824 236.5876 177.907 236.8596 176.0792 240.9371 180.6025 244.8918 178.3038 248.2731 173.9235 245.9998 170.4191 249.7655 173.5231 254.318 172.3444 255.5752 171.2023 256.8476 166.4742 252.8324 162.8788 255.0067 163.905 260.3788 159.7109 261.8061 157.0723 256.0959 152.7311 256.8819 151.6364 262.7445 148.8799 263.7019 146.052 256.9864C103.8774 264.13 92.51814 283.112 92.51814 283.112 85.96025 291.9265 85.68725 310.7549 93.4538 329.4729 108.2102 365.037 155.4339 373.4086 155.4339 373.4086 140.1413 375.825 125.1594 367.8853 125.1594 367.8853 127.0579 372.7548 133.1143 378.6539 133.1143 378.6539 124.7701 376.4945 109.9125 360.7715 109.9125 360.7715 109.6866 365.5665 112.1906 371.9008 112.1906 371.9008 106.2137 366.3964 97.30057 348.1246 97.30057 348.1246 95.02455 353.7912 97.18041 362.2243 97.18041 362.2243 90.53695 350.0983 89.6085 332.0651 89.6085 332.0651 84.52258 335.6322 84.80085 345.3639 84.80085 345.3639 78.70754 335.0651 82.75297 314.9295 82.75297 314.9295 77.2846 318.1735 74.87481 325.9589 74.87481 325.9589 71.53818 311.0059 82.69258 294.4389 82.69258 294.4389 75.09935 296.5055 70.83542 301.3612 70.83542 301.3612 71.56977 290.2127 87.8108 273.9313 87.8108 273.9313 80.69376 272.2397 74.03057 278.0778 74.03057 278.0778 86.69047 259.3373 103.5827 260.1521 103.5827 260.1521 98.3063 251.6618 93.87131 239.2601 93.87131 239.2601 98.44861 246.6889 102.6135 249.9381 105.9524 251.8665 112.9684 255.9185 124.6327 254.9012 124.6327 254.9012 113.5361 242.7566 111.6674 230.8469 111.6674 230.8469 117.563 242.9379 123.2237 245.9785 130.1808 248.0552 134.2477 249.2692 142.9658 248.2393 142.9658 248.2393 137.4498 242.807 134.9102 231.2504 134.9102 231.2504 142.3037 246.1248 158.3851 242.0152 158.3851 242.0152 154.3798 237.1883 153.8551 233.5104 153.8551 233.5104 156.9689 238.6809 160.2164 240.0555 162.3709 239.5819 172.4606 237.3641 168.003 227.2986 165.3747 224.4199 165.2002 224.2287 163.0821 223.0899 163.0821 223.0899 165.3393 223.2903 168.1966 223.1775 168.8076 222.2744 172.8842 216.2489 164.777 215.497 159.4585 216.2165 159.4585 216.2165 160.8676 214.0361 161.159 213.1943 161.5521 212.059 161.7046 209.9998 161.134 209.5112 158.7691 207.486 153.7036 205.2565 148.4355 207.9109 145.834 209.2216 144.1982 211.1194 143.4264 213.7708 143.4264 213.7708 140.5508 208.3548 132.4651 208.5763 123.4445 208.8233 121.6876 216.53 121.6876 216.53 111.8995 204.1815 104.2774 218.1348 104.2774 218.1348 99.07415 211.5245 90.32385 216.8364 87.66817 217.7433 81.92277 219.7055 78.04729 219.0447 73.53792 216.1729 67.84906 212.5498 65.23538 205.3843 65.23538 205.3843 69.77049 205.1457 73.99433 203.7192 73.99433 203.7192 79.12126 211.7366 84.4294 210.0265 84.4294 210.0265 84.4294 210.0265 84.85641 206.5395 85.36641 204.2677 85.85874 202.0746 87.09649 201.4405 87.09649 201.4405 89.10084 202.833 91.50607 203.3605 91.50607 203.3605 104.2299 200.5058 137.4394 189.5579 137.4394 189.5579 149.2268 178.207 157.298 177.6106 157.298 177.6106 187.2195 187.8813 209.4094 185.6089 209.4094 185.6089 209.1294 185.8948 206.2211 190.7696 198.1423 191.229 187.6858 191.8235 169.0824 190.9037 169.0824 190.9037 162.9882 195.1009 163.1434 197.8939 163.1434 197.8939 167.2979 202.9651 174.6148 212.6782 174.6148 212.6782Z"/>
<path transform="matrix(1,0,0,-1,0,548)" d="M103.4684 287.7437C98.19201 296.234 90.73807 316.6955 90.73807 316.6955 92.79705 313.3539 95.5544 308.4674 98.23907 305.1202 101.5226 301.0263 104.711 298.697 106.548 297.636 113.564 293.584 124.4393 293.118 124.4393 293.118 113.3427 305.2626 110.2027 324.4878 110.2027 324.4878 111.7664 321.2809 113.7793 316.4947 115.7124 313.3015 118.0654 309.4147 120.5552 306.6242 122.5403 305.2543 125.0732 303.5065 128.1376 302.1972 131.0035 301.3417 135.0703 300.1277 142.8201 299.904 142.8201 299.904 137.304 305.3363 133.0299 324.185 133.0299 324.185 134.547 321.1327 136.5313 316.2165 139.1807 313.1089 141.3601 310.5525 144.3412 309.1308 146.1014 308.4717 152.6288 306.0276 157.8194 306.9419 157.8194 306.9419 153.8141 311.7688 152.9409 319.0172 152.9409 319.0172 156.5291 312.065 161.4779 308.1165 163.6325 308.5901" fill-opacity="0"/>
<path stroke-width="1.492445" stroke-linecap="butt" stroke-miterlimit="10" stroke-linejoin="miter" fill="none" stroke="#3b3b3b" d="M103.4684 260.2563C98.19201 251.766 90.73807 231.3045 90.73807 231.3045 92.79705 234.6461 95.5544 239.5326 98.23907 242.8798 101.5226 246.9737 104.711 249.303 106.548 250.364 113.564 254.416 124.4393 254.882 124.4393 254.882 113.3427 242.7374 110.2027 223.5122 110.2027 223.5122 111.7664 226.7191 113.7793 231.5053 115.7124 234.6985 118.0654 238.5853 120.5552 241.3758 122.5403 242.7457 125.0732 244.4935 128.1376 245.8028 131.0035 246.6583 135.0703 247.8723 142.8201 248.096 142.8201 248.096 137.304 242.6637 133.0299 223.815 133.0299 223.815 134.547 226.8673 136.5313 231.7835 139.1807 234.8911 141.3601 237.4475 144.3412 238.8692 146.1014 239.5283 152.6288 241.9724 157.8194 241.0581 157.8194 241.0581 153.8141 236.2312 152.9409 228.9828 152.9409 228.9828 156.5291 235.935 161.4779 239.8835 163.6325 239.4099"/>
<path transform="matrix(1,0,0,-1,0,548)" d="M161.8237 173.5427C146.5908 171.0084 125.4317 179.3549 125.4317 179.3549 127.3303 174.4853 135.4633 167.1748 135.4633 167.1748 127.1191 169.3343 109.9865 186.9115 109.9865 186.9115 109.7606 182.1165 113.6302 172.7235 113.6302 172.7235 107.6533 178.2278 97.18507 199.4549 97.18507 199.4549 94.90906 193.7884 98.53938 180.8493 98.53938 180.8493 91.89592 192.9753 89.31783 215.5822 89.31783 215.5822 84.23192 212.015 84.76114 199.8743 84.76114 199.8743 78.66782 210.1732 82.40037 232.9358 82.40037 232.9358 76.932 229.6918 74.28923 219.5162 74.28923 219.5162 70.9526 234.4693 82.45659 253.581 82.45659 253.581 74.86335 251.5143 68.93396 244.4877 68.93396 244.4877 69.66831 255.6362 87.73657 274.0263 87.73657 274.0263 80.61954 275.7178 70.01929 266.3409 70.01929 266.3409 82.67918 285.0814 100.1152 287.6369 100.1152 287.6369" fill-opacity="0"/>
<path stroke-width="2.00823" stroke-linecap="butt" stroke-miterlimit="10" stroke-linejoin="miter" fill="none" stroke="#3b3b3b" d="M161.8237 374.4573C146.5908 376.9916 125.4317 368.6451 125.4317 368.6451 127.3303 373.5147 135.4633 380.8252 135.4633 380.8252 127.1191 378.6657 109.9865 361.0885 109.9865 361.0885 109.7606 365.8835 113.6302 375.2765 113.6302 375.2765 107.6533 369.7722 97.18507 348.5451 97.18507 348.5451 94.90906 354.2116 98.53938 367.1507 98.53938 367.1507 91.89592 355.0247 89.31783 332.4178 89.31783 332.4178 84.23192 335.985 84.76114 348.1257 84.76114 348.1257 78.66782 337.8268 82.40037 315.0642 82.40037 315.0642 76.932 318.3082 74.28923 328.4838 74.28923 328.4838 70.9526 313.5307 82.45659 294.419 82.45659 294.419 74.86335 296.4857 68.93396 303.5123 68.93396 303.5123 69.66831 292.3638 87.73657 273.9737 87.73657 273.9737 80.61954 272.2822 70.01929 281.6591 70.01929 281.6591 82.67918 262.9186 100.1152 260.3631 100.1152 260.3631"/>
<path transform="matrix(1,0,0,-1,0,548)" d="M155.6128 174.6146C140.3798 172.0803 125.1345 180.1419 125.1345 180.1419 127.0331 175.2723 133.1316 169.3305 133.1316 169.3305 124.7874 171.4899 109.9298 187.2129 109.9298 187.2129 109.7039 182.418 112.2078 176.0837 112.2078 176.0837 106.2309 181.5881 97.31783 199.8598 97.31783 199.8598 95.04182 194.1933 97.19768 185.7602 97.19768 185.7602 90.55422 197.8861 89.62576 215.9194 89.62576 215.9194 84.53985 212.3522 84.81812 202.6205 84.81812 202.6205 78.72481 212.9194 82.77024 233.0549 82.77024 233.0549 77.30187 229.811 74.89208 222.0255 74.89208 222.0255 71.55545 236.9786 82.70985 253.5456 82.70985 253.5456 75.11662 251.4789 70.85269 246.6233 70.85269 246.6233 71.58704 257.7718 87.82806 274.0531 87.82806 274.0531 80.71103 275.7447 74.04784 269.9067 74.04784 269.9067 86.70774 288.6471 103.5999 287.8323 103.5999 287.8323 98.32357 296.3226 93.88858 308.7243 93.88858 308.7243 98.46588 301.2956 102.6308 298.0463 105.9696 296.118 112.9857 292.066 124.65 293.0833 124.65 293.0833 113.5534 305.2278 111.6847 317.1376 111.6847 317.1376 117.5803 305.0466 123.241 302.006 130.1981 299.9292 134.2649 298.7152 142.9831 299.7451 142.9831 299.7451 137.467 305.1774 134.9275 316.7341 134.9275 316.7341 142.3209 301.8596 158.4024 305.9693 158.4024 305.9693 154.397 310.7961 153.8723 314.474 153.8723 314.474 156.9862 309.3036 160.2337 307.9289 162.3882 308.4025 172.4779 310.6203 168.0203 320.6859 165.392 323.5645 165.2174 323.7557 163.0994 324.8945 163.0994 324.8945 165.3566 324.6942 168.2139 324.8069 168.8249 325.7101 172.9015 331.7355 164.7943 332.4874 159.4758 331.768 159.4758 331.768 160.8848 333.9483 161.1763 334.7902 161.5694 335.9255 161.7219 337.9847 161.1513 338.4733 158.7864 340.4985 153.7209 342.7279 148.4527 340.0736 145.8513 338.7628 144.2155 336.865 143.4437 334.2136 143.4437 334.2136 140.568 339.6296 132.4824 339.4082 123.4617 339.1611 121.7049 331.4545 121.7049 331.4545 111.9168 343.803 104.2947 329.8496 104.2947 329.8496 99.09142 336.46 90.34112 331.1481 87.68544 330.2411 81.94004 328.279 78.06456 328.9397 73.55519 331.8116 70.36469 333.8435 68.14144 336.9896 66.80402 339.3611 65.75674 341.2181 65.25265 342.6001 65.25265 342.6001" fill-opacity="0"/>
<path stroke-width="2.00823" stroke-linecap="butt" stroke-miterlimit="10" stroke-linejoin="miter" fill="none" stroke="#737373" d="M155.6128 373.3854C140.3798 375.9197 125.1345 367.8581 125.1345 367.8581 127.0331 372.7277 133.1316 378.6695 133.1316 378.6695 124.7874 376.5101 109.9298 360.7871 109.9298 360.7871 109.7039 365.582 112.2078 371.9163 112.2078 371.9163 106.2309 366.4119 97.31783 348.1402 97.31783 348.1402 95.04182 353.8067 97.19768 362.2398 97.19768 362.2398 90.55422 350.1139 89.62576 332.0806 89.62576 332.0806 84.53985 335.6478 84.81812 345.3795 84.81812 345.3795 78.72481 335.0806 82.77024 314.9451 82.77024 314.9451 77.30187 318.189 74.89208 325.9745 74.89208 325.9745 71.55545 311.0214 82.70985 294.4544 82.70985 294.4544 75.11662 296.5211 70.85269 301.3767 70.85269 301.3767 71.58704 290.2282 87.82806 273.9469 87.82806 273.9469 80.71103 272.2553 74.04784 278.0933 74.04784 278.0933 86.70774 259.3529 103.5999 260.1677 103.5999 260.1677 98.32357 251.6774 93.88858 239.2757 93.88858 239.2757 98.46588 246.7044 102.6308 249.9537 105.9696 251.882 112.9857 255.934 124.65 254.9167 124.65 254.9167 113.5534 242.7722 111.6847 230.8624 111.6847 230.8624 117.5803 242.9534 123.241 245.994 130.1981 248.0708 134.2649 249.2848 142.9831 248.2549 142.9831 248.2549 137.467 242.8226 134.9275 231.2659 134.9275 231.2659 142.3209 246.1404 158.4024 242.0307 158.4024 242.0307 154.397 237.2039 153.8723 233.526 153.8723 233.526 156.9862 238.6964 160.2337 240.0711 162.3882 239.5975 172.4779 237.3797 168.0203 227.3141 165.392 224.4355 165.2174 224.2443 163.0994 223.1055 163.0994 223.1055 165.3566 223.3058 168.2139 223.1931 168.8249 222.2899 172.9015 216.2645 164.7943 215.5126 159.4758 216.232 159.4758 216.232 160.8848 214.0517 161.1763 213.2098 161.5694 212.0745 161.7219 210.0153 161.1513 209.5267 158.7864 207.5015 153.7209 205.2721 148.4527 207.9264 145.8513 209.2372 144.2155 211.135 143.4437 213.7864 143.4437 213.7864 140.568 208.3704 132.4824 208.5918 123.4617 208.8389 121.7049 216.5455 121.7049 216.5455 111.9168 204.197 104.2947 218.1504 104.2947 218.1504 99.09142 211.54 90.34112 216.8519 87.68544 217.7589 81.94004 219.721 78.06456 219.0603 73.55519 216.1884 70.36469 214.1565 68.14144 211.0104 66.80402 208.6389 65.75674 206.7819 65.25265 205.3999 65.25265 205.3999"/>
<path transform="matrix(1,0,0,-1,0,548)" d="M175.305 335.5538 180.4606 337.3267 182.3144 334.0452 177.6858 330.6243 178.6424 327.3319 184.7153 326.694 184.8564 323.3366 178.927 320.9533 179.0727 316.7066 183.9536 315.0984 183.1827 311.4178 177.9073 311.1458 176.0795 307.0683 180.6029 303.1136 178.3041 299.7323 173.9238 302.0056 170.4194 298.2399 173.5234 293.6874 172.3447 292.4302 171.2026 291.1578 166.4745 295.173 162.8791 292.9987 163.9053 287.6266 159.7112 286.1993 157.0726 291.9095 152.7314 291.1235 151.6367 285.2609 148.8802 284.3035 146.3538 290.2786" fill-opacity="0"/>
<path stroke-width="2.00823" stroke-linecap="butt" stroke-miterlimit="10" stroke-linejoin="miter" fill="none" stroke="#2f9b16" d="M175.305 212.4462 180.4606 210.6733 182.3144 213.9548 177.6858 217.3757 178.6424 220.6681 184.7153 221.306 184.8564 224.6634 178.927 227.0467 179.0727 231.2934 183.9536 232.9016 183.1827 236.5822 177.9073 236.8542 176.0795 240.9317 180.6029 244.8864 178.3041 248.2677 173.9238 245.9944 170.4194 249.7601 173.5234 254.3126 172.3447 255.5698 171.2026 256.8422 166.4745 252.827 162.8791 255.0013 163.9053 260.3734 159.7112 261.8007 157.0726 256.0905 152.7314 256.8765 151.6367 262.7391 148.8802 263.6965 146.3538 257.7214"/>
<path transform="matrix(1,0,0,-1,0,548)" d="M121.9715 198.9883C134.7926 177.2113 155.5326 182.1135 155.5326 182.1135 160.9533 183.339 164.7009 185.9326 178.5867 187.9326 189.4682 189.4999 206.6726 179.8997 211.8607 172.8783 221.526 159.7976 229.2124 143.913 229.2124 143.913 232.2404 143.0441 238.1553 137.5098 238.1553 137.5098 236.9101 146.2512 224.176 164.7448 224.176 164.7448 229.7823 164.6708 233.9589 162.3586 233.9589 162.3586 228.9141 170.4543 212.2495 180.4499 212.2495 180.4499 215.196 182.3611 222.4857 182.5265 222.4857 182.5265 214.0015 190.2185 195.6136 191.1937 195.6136 191.1937 195.9233 194.5903 199.3731 198.2349 199.3731 198.2349 189.6305 201.0627 174.3359 195.4447 174.3359 195.4447 173.9827 198.3908 175.9675 203.5206 175.9675 203.5206 168.9388 201.4917 164.1803 196.6143 164.1803 196.6143 158.1161 191.0097 153.6471 189.0897 153.6471 189.0897 148.5093 186.5443 143.4432 187.9651 143.4432 187.9651 135.3583 189.7496 121.9715 198.9883 121.9715 198.9883Z" fill-opacity="0"/>
<path stroke-width="2.00823" stroke-linecap="butt" stroke-miterlimit="10" stroke-linejoin="miter" fill="none" stroke="#ffffff" d="M121.9715 349.0117C134.7926 370.7887 155.5326 365.8865 155.5326 365.8865 160.9533 364.661 164.7009 362.0674 178.5867 360.0674 189.4682 358.5001 206.6726 368.1003 211.8607 375.1217 221.526 388.2024 229.2124 404.087 229.2124 404.087 232.2404 404.9559 238.1553 410.4902 238.1553 410.4902 236.9101 401.7488 224.176 383.2552 224.176 383.2552 229.7823 383.3292 233.9589 385.6414 233.9589 385.6414 228.9141 377.5457 212.2495 367.5501 212.2495 367.5501 215.196 365.6389 222.4857 365.4735 222.4857 365.4735 214.0015 357.7815 195.6136 356.8063 195.6136 356.8063 195.9233 353.4097 199.3731 349.7651 199.3731 349.7651 189.6305 346.9373 174.3359 352.5553 174.3359 352.5553 173.9827 349.6092 175.9675 344.4794 175.9675 344.4794 168.9388 346.5083 164.1803 351.3857 164.1803 351.3857 158.1161 356.9903 153.6471 358.9103 153.6471 358.9103 148.5093 361.4557 143.4432 360.0349 143.4432 360.0349 135.3583 358.2504 121.9715 349.0117 121.9715 349.0117Z"/>
<path transform="matrix(1,0,0,-1,0,548)" d="M217.0861 108.9615C220.0881 113.3364 222.8521 121.7018 222.8521 121.7018 223.4013 119.194 223.6461 115.7845 223.6461 115.7845 226.2928 116.9064 228.5654 131.2327 228.5654 131.2327 231.4997 127.0902 230.838 107.3268 230.838 107.3268 237.0231 113.7995 230.838 139.2014 230.838 139.2014 234.6066 137.0726 240.3812 130.3606 240.3812 130.3606 246.4168 138.283 231.1708 159.5269 231.1708 159.5269 239.303 157.453 240.6869 156.9393 240.6869 156.9393 239.6132 166.1045 219.7005 179.285 219.7005 179.285 224.8887 180.0135 229.7694 179.8914 229.7694 179.8914 223.1729 190.7837 200.0528 193.7643 200.0528 193.7643 203.7986 198.9337 206.0417 200.4382 206.0417 200.4382 191.4208 204.8892 177.4239 199.4517 177.4239 199.4517 178.5569 203.2051 180.4224 206.7165 180.4224 206.7165 178.0539 207.986 171.4748 204.88 171.4748 204.88 169.9037 204.083 167.139 202.4182 165.0405 200.7713 162.3891 198.6904 160.3681 196.5293 158.348 194.9739 154.1781 191.7633 151.2669 190.9691 151.2669 190.9691 146.9487 190.4721 144.2273 191.052 144.2273 191.052 122.0157 197.2369 110.4267 217.4963 110.4267 217.4963 107.9438 223.1236 107.3839 227.6195 107.3839 227.6195 106.8555 238.4026 108.9122 245.4827 108.9122 245.4827 114.7473 261.2404 133.4146 263.0769 133.4146 263.0769 120.2967 256.2944 119.9085 252.7649 119.9085 252.7649 116.237 247.0177 115.3962 241.7094 115.716 236.8058 117.9538 202.4916 152.2732 203.1717 152.2732 203.1717 137.677 207.5663 138.1479 213.2164 138.1479 213.2164 162.1433 206.773 165.9184 215.5379 165.426 221.414L171.3645 221.2908 174.1966 212.9211 182.0437 212.8357 185.1529 221.4865 192.5249 220.6089 192.7004 211.8829 200.6742 208.0966 206.8016 214.6473 212.3562 212.7153 212.0879 203.6186 218.4228 200.7838 224.4116 205.6261 229.503 201.9596 226.6654 193.9774 231.8566 189.4445 239.604 193.4492 243.4235 189.4876 238.1243 181.1364 240.6907 175.0769 250.9999 177.2541 253.3645 171.3236 246.3071 165.399 247.2885 158.4784 257.2311 155.9459 257.0957 151.3917 249.2619 147.9951 249.325 139.821 258.0669 138.2277 257.463 132.3841 248.279 130.6807 247.0856 123.2134 255.0304 118.807 252.4886 112.57 242.1001 114.2929 237.4203 106.9768" fill-opacity="0"/>
<path stroke-width="2.00823" stroke-linecap="butt" stroke-miterlimit="10" stroke-linejoin="miter" fill="none" stroke="#ffffff" d="M217.0861 439.0385C220.0881 434.6636 222.8521 426.2982 222.8521 426.2982 223.4013 428.806 223.6461 432.2155 223.6461 432.2155 226.2928 431.0936 228.5654 416.7673 228.5654 416.7673 231.4997 420.9098 230.838 440.6732 230.838 440.6732 237.0231 434.2005 230.838 408.7986 230.838 408.7986 234.6066 410.9274 240.3812 417.6394 240.3812 417.6394 246.4168 409.717 231.1708 388.4731 231.1708 388.4731 239.303 390.547 240.6869 391.0607 240.6869 391.0607 239.6132 381.8955 219.7005 368.715 219.7005 368.715 224.8887 367.9865 229.7694 368.1086 229.7694 368.1086 223.1729 357.2163 200.0528 354.2357 200.0528 354.2357 203.7986 349.0663 206.0417 347.5618 206.0417 347.5618 191.4208 343.1108 177.4239 348.5483 177.4239 348.5483 178.5569 344.7949 180.4224 341.2835 180.4224 341.2835 178.0539 340.014 171.4748 343.12 171.4748 343.12 169.9037 343.917 167.139 345.5818 165.0405 347.2287 162.3891 349.3096 160.3681 351.4707 158.348 353.0261 154.1781 356.2367 151.2669 357.0309 151.2669 357.0309 146.9487 357.5279 144.2273 356.948 144.2273 356.948 122.0157 350.7631 110.4267 330.5037 110.4267 330.5037 107.9438 324.8764 107.3839 320.3805 107.3839 320.3805 106.8555 309.5974 108.9122 302.5173 108.9122 302.5173 114.7473 286.7596 133.4146 284.9231 133.4146 284.9231 120.2967 291.7056 119.9085 295.2351 119.9085 295.2351 116.237 300.9823 115.3962 306.2906 115.716 311.1942 117.9538 345.5084 152.2732 344.8283 152.2732 344.8283 137.677 340.4337 138.1479 334.7836 138.1479 334.7836 162.1433 341.227 165.9184 332.4621 165.426 326.586L171.3645 326.7092 174.1966 335.0789 182.0437 335.1643 185.1529 326.5135 192.5249 327.3911 192.7004 336.1171 200.6742 339.9034 206.8016 333.3527 212.3562 335.2847 212.0879 344.3814 218.4228 347.2162 224.4116 342.3739 229.503 346.0404 226.6654 354.0226 231.8566 358.5555 239.604 354.5508 243.4235 358.5124 238.1243 366.8636 240.6907 372.9231 250.9999 370.7459 253.3645 376.6764 246.3071 382.601 247.2885 389.5216 257.2311 392.0541 257.0957 396.6083 249.2619 400.0049 249.325 408.179 258.0669 409.7723 257.463 415.6159 248.279 417.3193 247.0856 424.7866 255.0304 429.193 252.4886 435.43 242.1001 433.7071 237.4203 441.0232"/>
<path transform="matrix(1,0,0,-1,0,548)" d="M161.6764 174.5109 155.548 173.5982 155.4423 175.6118 161.6764 174.5109Z" fill="#737373"/>
<path transform="matrix(1,0,0,-1,0,548)" d="M63.82603 343.5481 65.94392 343.6695 66.63639 341.6709 64.30756 342.2441 63.82603 343.5481Z" fill="#737373"/>
<path transform="matrix(1,0,0,-1,0,548)" d="M152.4175 203.1411C137.8213 207.5356 138.1484 213.2059 138.1484 213.2059 162.1438 206.7625 165.9189 215.5274 165.4265 221.4034L171.365 221.2802 174.1971 212.9105 182.0442 212.8252 185.1534 221.476 192.5254 220.5983 192.7009 211.8723 200.6747 208.0861 206.8021 214.6368 212.3567 212.7048 212.0884 203.6081 218.4233 200.7732 224.4121 205.6156 229.5035 201.9491 226.6659 193.9669 231.8571 189.434 239.6045 193.4387 243.424 189.477 238.1248 181.1259 240.6912 175.0664 251.0004 177.2436 253.365 171.3131 246.3076 165.3885 247.289 158.4678 257.2316 155.9354 257.0962 151.3812 249.2624 147.9845 249.3255 139.8104 258.0675 138.2172 257.4635 132.3736 248.2795 130.6702 247.0861 123.2029 255.0309 118.7965 252.4891 112.5595 242.1006 114.2824 237.4208 106.9663" fill-opacity="0"/>
<path stroke-width="2.00823" stroke-linecap="butt" stroke-miterlimit="10" stroke-linejoin="miter" fill="none" stroke="#2f9b16" d="M152.4175 344.8589C137.8213 340.4644 138.1484 334.7941 138.1484 334.7941 162.1438 341.2375 165.9189 332.4726 165.4265 326.5966L171.365 326.7198 174.1971 335.0895 182.0442 335.1748 185.1534 326.524 192.5254 327.4017 192.7009 336.1277 200.6747 339.9139 206.8021 333.3632 212.3567 335.2952 212.0884 344.3919 218.4233 347.2268 224.4121 342.3844 229.5035 346.0509 226.6659 354.0331 231.8571 358.566 239.6045 354.5613 243.424 358.523 238.1248 366.8741 240.6912 372.9336 251.0004 370.7564 253.365 376.6869 246.3076 382.6115 247.289 389.5322 257.2316 392.0646 257.0962 396.6188 249.2624 400.0155 249.3255 408.1896 258.0675 409.7828 257.4635 415.6264 248.2795 417.3298 247.0861 424.7971 255.0309 429.2035 252.4891 435.4405 242.1006 433.7176 237.4208 441.0337"/>
<path transform="matrix(1,0,0,-1,0,548)" d="M152.1227 202.1741 152.3437 204.2109 158.7461 202.2915 152.1227 202.1741Z" fill="#2f9b16"/>
<path transform="matrix(1,0,0,-1,0,548)" d="M144.6263 291.7898 146.6633 292.135 147.6093 289.885 145.6661 289.3395 144.6263 291.7898Z" fill="#2f9b16"/>
<path transform="matrix(1,0,0,-1,0,548)" d="M175.3802 336.6539 175.6643 334.624 174.257 334.1228 173.0393 335.7385 175.3802 336.6539Z" fill="#2f9b16"/>
<path transform="matrix(1,0,0,-1,0,548)" d="M214.4705 105.7926H260.657V106.317H214.4705V105.7926Z" fill-opacity="0"/>
<path stroke-width="2.822094" stroke-linecap="butt" stroke-miterlimit="10" stroke-linejoin="miter" fill="none" stroke="#000000" d="M214.4705 442.2074H260.657V441.683H214.4705V442.2074Z"/>
<path transform="matrix(1,0,0,-1,0,548)" d="M213.5898 109.2974H229.7021 259.7764V109.2111H213.5898V109.2974Z" fill-opacity="0"/>
<path stroke-width=".9308847" stroke-linecap="butt" stroke-miterlimit="10" stroke-linejoin="miter" fill="none" stroke="#ffffff" d="M213.5898 438.7026H229.7021 259.7764V438.7889H213.5898V438.7026Z"/>
<path transform="matrix(1,0,0,-1,0,548)" d="M213.3198 108.2702H229.4321 259.5063V108.1839H213.3198V108.2702Z" fill-opacity="0"/>
<path stroke-width=".9308847" stroke-linecap="butt" stroke-miterlimit="10" stroke-linejoin="miter" fill="none" stroke="#ffffff" d="M213.3198 439.7298H229.4321 259.5063V439.8161H213.3198V439.7298Z"/>
<path transform="matrix(1,0,0,-1,0,548)" d="M213.3495 108.544H229.4618 259.5361V108.4577H213.3495V108.544Z" fill-opacity="0"/>
<path stroke-width=".9308847" stroke-linecap="butt" stroke-miterlimit="10" stroke-linejoin="miter" fill="none" stroke="#ffffff" d="M213.3495 439.456H229.4618 259.5361V439.5423H213.3495V439.456Z"/>
</g>
<g clip-path="url(#clip_2)">
<path transform="matrix(1,0,0,-1,0,548)" d="M63.98234 484.7136V489.0891C63.31999 488.8483 63.21964 488.8081 62.93864 488.8081 62.59744 488.8081 62.39673 488.8483 61.45339 489.1493 60.57026 489.4303 59.68714 489.5909 58.90437 489.5909 57.55961 489.5909 56.13457 489.1493 55.11095 488.3666 53.30456 487.0419 52.28094 484.6534 52.28094 481.8435 52.28094 479.6156 52.92321 477.7891 54.16761 476.4444 55.3518 475.1799 56.97755 474.4774 58.78394 474.4774 60.55019 474.4774 62.07559 475.0193 63.09921 476.0028 63.8017 476.6852 64.30347 477.4881 64.74503 478.6522L64.16297 478.9131C63.38021 476.6451 61.57381 475.2803 59.34593 475.2803 56.31521 475.2803 54.30811 478.03 54.30811 482.2248 54.30811 484.1717 54.70953 485.8778 55.47223 487.1021 56.19478 488.3063 57.53954 489.049 58.98465 489.049 60.28927 489.049 61.5136 488.4468 62.33651 487.4232 62.87843 486.7007 63.15942 485.958 63.34006 484.7136Z" fill="#2f9b16"/>
<path transform="matrix(1,0,0,-1,0,548)" d="M73.59165 479.7962H79.19146L80.03444 477.2673C80.19501 476.7655 80.2753 476.3641 80.2753 476.1232 80.2753 475.5412 79.8538 475.3003 78.83018 475.2602V474.7584H84.0085V475.2602C82.84439 475.3003 82.46304 475.6817 81.90105 477.3275L77.64599 489.4504 76.40159 489.3099 72.12647 477.9898C71.36377 475.9627 70.70142 475.2602 69.55738 475.2602V474.7584H74.25399V475.2602C73.08987 475.3003 72.56803 475.6215 72.56803 476.344 72.56803 476.7254 72.70853 477.3476 72.94938 477.9898ZM78.93054 480.5389H73.87264L76.48188 487.5637Z" fill="#2f9b16"/>
<path transform="matrix(1,0,0,-1,0,548)" d="M92.43363 481.6628H93.65796C94.15974 481.6628 94.66151 481.5826 95.083 481.422 95.68513 481.2213 96.06648 480.8199 96.54819 479.9568 97.11017 478.9733 97.95316 476.9462 98.73593 474.7584H101.867V475.2C101.3853 475.22 101.1043 475.3204 100.8032 475.5813 100.4018 475.9225 100.2413 476.2035 99.25777 478.4314 98.59543 479.9167 98.21408 480.5188 97.59188 481.0607 97.13024 481.4421 96.66861 481.6428 95.9862 481.7833V481.9639C97.49152 482.1245 98.756 482.6664 99.35813 483.4492 99.77962 484.0111 100.0405 484.8541 100.0405 485.7172 100.0405 488.1658 98.33451 489.3099 94.66151 489.3099H89.10184V488.8282C90.54695 488.768 90.64731 488.6275 90.64731 486.7609V477.3074C90.64731 475.4609 90.52688 475.3003 89.10184 475.2602V474.7584H93.99917V475.2602C92.55405 475.3003 92.43363 475.4609 92.43363 477.3074ZM92.43363 482.265V488.7078H94.28016C96.84925 488.7078 98.09365 487.6841 98.09365 485.5767 98.09365 484.3524 97.67216 483.4291 96.86932 482.8872 96.28726 482.4857 95.30378 482.265 94.09952 482.265Z" fill="#2f9b16"/>
<path transform="matrix(1,0,0,-1,0,548)" d="M110.252 481.6628H111.4763C111.9781 481.6628 112.4799 481.5826 112.9014 481.422 113.5035 481.2213 113.8848 480.8199 114.3665 479.9568 114.9285 478.9733 115.7715 476.9462 116.5543 474.7584H119.6854V475.2C119.2037 475.22 118.9227 475.3204 118.6216 475.5813 118.2202 475.9225 118.0596 476.2035 117.0761 478.4314 116.4138 479.9167 116.0324 480.5188 115.4102 481.0607 114.9486 481.4421 114.487 481.6428 113.8046 481.7833V481.9639C115.3099 482.1245 116.5744 482.6664 117.1765 483.4492 117.598 484.0111 117.8589 484.8541 117.8589 485.7172 117.8589 488.1658 116.1529 489.3099 112.4799 489.3099H106.9202V488.8282C108.3653 488.768 108.4657 488.6275 108.4657 486.7609V477.3074C108.4657 475.4609 108.3452 475.3003 106.9202 475.2602V474.7584H111.8175V475.2602C110.3724 475.3003 110.252 475.4609 110.252 477.3074ZM110.252 482.265V488.7078H112.0985C114.6676 488.7078 115.912 487.6841 115.912 485.5767 115.912 484.3524 115.4905 483.4291 114.6877 482.8872 114.1056 482.4857 113.1221 482.265 111.9179 482.265Z" fill="#2f9b16"/>
</g>
<g clip-path="url(#clip_3)">
<path transform="matrix(1,0,0,-1,0,548)" d="M294.5514 318.6789H295.9544C296.5294 318.6789 297.1044 318.5869 297.5874 318.4029 298.2774 318.1729 298.7144 317.7129 299.2664 316.7239 299.9104 315.5969 300.8764 313.2739 301.7734 310.7669H305.3614V311.2729C304.8094 311.2959 304.4874 311.4109 304.1424 311.7099 303.6824 312.1009 303.4984 312.4229 302.3714 314.9759 301.6124 316.6779 301.1754 317.3679 300.4624 317.9889 299.9334 318.4259 299.4044 318.6559 298.6224 318.8169V319.0239C300.3474 319.2079 301.7964 319.8289 302.4864 320.7259 302.9694 321.3699 303.2684 322.3359 303.2684 323.3249 303.2684 326.1309 301.3134 327.4419 297.1044 327.4419H290.7334V326.8899C292.3894 326.8209 292.5044 326.6599 292.5044 324.5209V313.6879C292.5044 311.5719 292.3664 311.3879 290.7334 311.3419V310.7669H296.3454V311.3419C294.6894 311.3879 294.5514 311.5719 294.5514 313.6879ZM294.5514 319.3689V326.7519H296.6674C299.6114 326.7519 301.0374 325.5789 301.0374 323.1639 301.0374 321.7609 300.5544 320.7029 299.6344 320.0819 298.9674 319.6219 297.8404 319.3689 296.4604 319.3689Z" fill="#2f9b16"/>
</g>
<g clip-path="url(#clip_4)">
<path transform="matrix(1,0,0,-1,0,548)" d="M290.2673 236.0667C290.9409 233.7715 292.1223 232.0328 293.7895 230.8442 295.5773 229.5711 297.7785 229.2583 300.1619 229.9577 302.5675 230.6637 304.1752 232.0464 305.0448 234.1472 305.8182 236.0042 305.8662 238.1276 305.1861 240.4449 304.5061 242.7622 303.3247 244.5008 301.6575 245.6895 299.819 246.9717 297.697 247.2598 295.2915 246.5538 292.908 245.8544 291.2406 244.4302 290.4022 242.3864 289.6261 240.4568 289.5873 238.3839 290.2673 236.0667ZM292.4963 236.7208C291.881 238.8174 291.7666 240.6775 292.1336 242.3672 292.5566 244.1932 293.7008 245.4398 295.4664 245.958 297.2319 246.4761 298.8619 246.0676 300.211 244.7376 301.4265 243.5363 302.3289 241.9315 302.9571 239.7907 303.5854 237.65 303.6933 235.812 303.3198 234.1444 302.8969 232.3184 301.7526 231.0717 299.9871 230.5536 298.2215 230.0355 296.585 230.4661 295.2424 231.7739 294.014 233.0194 293.1116 234.6242 292.4963 236.7208Z" fill="#2f9b16"/>
</g>
<g clip-path="url(#clip_5)">
<path transform="matrix(1,0,0,-1,0,548)" d="M290.4943 290.1071C291.1679 287.8119 292.3493 286.0732 294.0165 284.8846 295.8043 283.6115 298.0055 283.2987 300.389 283.9981 302.7945 284.7041 304.4022 286.0868 305.2718 288.1877 306.0452 290.0446 306.0932 292.168 305.4132 294.4853 304.7331 296.8026 303.5517 298.5413 301.8845 299.7299 300.0461 301.0121 297.9241 301.3002 295.5185 300.5942 293.135 299.8948 291.4676 298.4706 290.6292 296.4268 289.8531 294.4972 289.8143 292.4244 290.4943 290.1071ZM292.7233 290.7612C292.108 292.8578 291.9936 294.7179 292.3607 296.4076 292.7836 298.2336 293.9278 299.4802 295.6934 299.9984 297.4589 300.5165 299.0889 300.108 300.438 298.778 301.6535 297.5767 302.5559 295.9719 303.1842 293.8312 303.8124 291.6904 303.9203 289.8525 303.5468 288.1848 303.1239 286.3588 301.9796 285.1121 300.2141 284.594 298.4485 284.0759 296.8121 284.5065 295.4695 285.8143 294.241 287.0598 293.3386 288.6646 292.7233 290.7612Z" fill="#2f9b16"/>
</g>
<g clip-path="url(#clip_6)">
<path transform="matrix(1,0,0,-1,0,548)" d="M125.6526 480.0499C126.2404 478.0471 127.2713 476.5299 128.7261 475.4927 130.2862 474.3818 132.2069 474.1088 134.2868 474.7192 136.3859 475.3352 137.7888 476.5417 138.5476 478.375 139.2225 479.9953 139.2643 481.8483 138.6709 483.8703 138.0775 485.8924 137.0466 487.4096 135.5918 488.4468 133.9876 489.5657 132.1359 489.8171 130.0368 489.2011 127.9569 488.5907 126.5019 487.3479 125.7703 485.5645 125.0931 483.8807 125.0592 482.0719 125.6526 480.0499ZM127.5977 480.6207C127.0608 482.4502 126.9609 484.0733 127.2812 485.5477 127.6503 487.1411 128.6487 488.229 130.1894 488.6811 131.73 489.1332 133.1524 488.7767 134.3296 487.6162 135.3902 486.5679 136.1777 485.1675 136.7259 483.2995 137.2741 481.4315 137.3683 479.8277 137.0423 478.3725 136.6733 476.7791 135.6748 475.6912 134.1342 475.2391 132.5935 474.787 131.1655 475.1627 129.994 476.304 128.922 477.3908 128.1346 478.7912 127.5977 480.6207Z" fill="#2f9b16"/>
</g>
<g clip-path="url(#clip_7)">
<path transform="matrix(1,0,0,-1,0,548)" d="M291.3991 256.8783H297.5631C299.1271 256.8783 300.5761 257.0393 301.4501 257.2923 303.5201 257.9593 304.5321 259.2703 304.5321 261.3863 304.5321 263.1343 303.7961 264.3303 302.2321 265.1353 301.4271 265.5493 300.7141 265.7103 299.5871 265.7563V265.9173C302.4851 266.2853 303.8881 267.5043 303.8881 269.6893 303.8881 271.2073 303.2441 272.2423 301.9101 272.8863 301.0131 273.3003 299.4721 273.5533 297.6781 273.5533H291.3991V273.0013C292.4571 273.0013 292.8711 272.8173 293.0321 272.3343 293.1011 272.1273 293.1011 272.1043 293.1471 270.6323V259.7993C293.1011 258.0743 293.1011 258.0513 292.8481 257.7753 292.6411 257.5453 292.1811 257.4303 291.3991 257.4303ZM295.1941 266.1703V272.8633H297.3101C300.2771 272.8633 301.7031 271.8053 301.7031 269.5973 301.7031 267.3433 300.2771 266.1703 297.5171 266.1703ZM295.1941 257.5683V265.4113H297.4251C298.6901 265.4113 299.8171 265.2043 300.4841 264.8593 301.5881 264.2613 302.1861 263.1343 302.1861 261.5703 302.1861 260.2133 301.7721 259.1093 301.0361 258.5113 300.3001 257.8673 299.1041 257.5683 297.4251 257.5683Z" fill="#2f9b16"/>
</g>
<g clip-path="url(#clip_8)">
<path transform="matrix(1,0,0,-1,0,548)" d="M298.778 218.9911C302.918 218.9451 303.562 218.4161 304.16 214.6671L304.896 214.7131 304.482 219.5431H290.958L290.544 214.7131 291.28 214.6671C291.855 218.4161 292.522 218.9451 296.639 218.9911V205.7891C296.639 204.5011 296.57 204.0411 296.271 203.7881 296.041 203.5581 295.489 203.4431 294.5 203.4431V202.8681H300.94V203.4431C300.02 203.4431 299.422 203.5351 299.192 203.7421 298.87 203.9951 298.778 204.4321 298.778 205.7891Z" fill="#2f9b16"/>
</g>
<g clip-path="url(#clip_9)">
<path transform="matrix(1,0,0,-1,0,548)" d="M294.7344 176.2289H300.8524V176.8039C298.9894 176.8499 298.8284 177.0339 298.8284 179.1499V189.9829C298.8284 192.1219 298.9664 192.2599 300.8524 192.3519V192.9039H294.7344V192.3519C296.5974 192.2599 296.7354 192.1219 296.7354 189.9829V179.1499C296.7354 177.0339 296.5974 176.8499 294.7344 176.8039Z" fill="#2f9b16"/>
</g>
<g clip-path="url(#clip_10)">
<path transform="matrix(1,0,0,-1,0,548)" d="M303.8042 160.2261V164.8041C303.1112 164.5521 303.0062 164.5101 302.7122 164.5101 302.3552 164.5101 302.1452 164.5521 301.1582 164.8671 300.2342 165.1611 299.3102 165.3291 298.4912 165.3291 297.0842 165.3291 295.5932 164.8671 294.5222 164.0481 292.6322 162.6621 291.5612 160.1631 291.5612 157.2231 291.5612 154.8921 292.2332 152.9811 293.5352 151.5741 294.7742 150.2511 296.4752 149.5161 298.3652 149.5161 300.2132 149.5161 301.8092 150.0831 302.8802 151.1121 303.6152 151.8261 304.1402 152.6661 304.6022 153.8841L303.9932 154.1571C303.1742 151.7841 301.2842 150.3561 298.9532 150.3561 295.7822 150.3561 293.6822 153.2331 293.6822 157.6221 293.6822 159.6591 294.1022 161.4441 294.9002 162.7251 295.6562 163.9851 297.0632 164.7621 298.5752 164.7621 299.9402 164.7621 301.2212 164.1321 302.0822 163.0611 302.6492 162.3051 302.9432 161.5281 303.1322 160.2261Z" fill="#2f9b16"/>
</g>
<g clip-path="url(#clip_11)">
<path transform="matrix(1,0,0,-1,0,548)" d="M292.6819 121.8722C293.4869 122.0332 293.9009 122.1022 294.2689 122.1022 294.4989 122.1022 294.7519 122.0792 295.0279 122.0332 296.6379 121.7112 297.2129 121.6422 298.1099 121.6422 299.6279 121.6422 300.8929 122.0562 301.8589 122.9072 302.7329 123.6432 303.1699 124.6782 303.1699 126.0352 303.1699 127.0932 302.9859 127.8522 302.5259 128.5652 301.8819 129.5772 300.8009 130.3362 297.9259 131.6932 295.1889 132.9812 294.4529 133.7402 294.4529 135.2582 294.4529 136.0172 294.7059 136.7302 295.1199 137.2592 295.6719 137.9032 296.4539 138.2252 297.5579 138.2252 299.0529 138.2252 300.2259 137.6502 300.8699 136.5922 301.2379 135.9712 301.4219 135.3042 301.5139 134.1772H302.2729L302.4109 138.7082C301.7899 138.4782 301.3759 138.3632 301.0309 138.3632 300.8009 138.3632 300.5249 138.4092 300.1799 138.4782 298.7309 138.8232 298.3399 138.8692 297.4659 138.8692 296.0859 138.8692 295.0509 138.5242 294.1769 137.7652 293.2339 136.9372 292.7279 135.7872 292.7279 134.4302 292.7279 133.3262 293.0729 132.4292 293.7399 131.7162 294.3839 131.0262 295.0969 130.5892 297.0519 129.6462 300.4789 127.9902 301.3299 127.1162 301.3299 125.2992 301.3299 123.4132 300.0879 122.3092 297.9949 122.3092 296.4769 122.3092 295.2809 122.7692 294.5449 123.6202 293.9239 124.3562 293.6939 125.0922 293.6019 126.5182H292.8429Z" fill="#2f9b16"/>
</g>
<g clip-path="url(#clip_12)">
<path transform="matrix(1,0,0,-1,0,548)" d="M145.3987 474.4991H155.8959L156.2772 478.4933 155.655 478.5735C155.073 475.884 154.2099 475.1013 151.8014 475.1013H148.9714V486.5016C148.9714 488.3682 149.0918 488.4886 150.7376 488.5488V489.0506H145.3987V488.5488C147.0245 488.4886 147.1449 488.3682 147.1449 486.5016V477.0281C147.1449 475.1815 147.0044 475.041 145.3987 474.9808Z" fill="#2f9b16"/>
<path transform="matrix(1,0,0,-1,0,548)" d="M161.4406 474.4991H171.9378L172.3191 478.4933 171.6969 478.5735C171.1148 475.884 170.2518 475.1013 167.8433 475.1013H165.0133V486.5016C165.0133 488.3682 165.1337 488.4886 166.7795 488.5488V489.0506H161.4406V488.5488C163.0664 488.4886 163.1868 488.3682 163.1868 486.5016V477.0281C163.1868 475.1815 163.0463 475.041 161.4406 474.9808Z" fill="#2f9b16"/>
</g>
<g clip-path="url(#clip_13)">
<path transform="matrix(1,0,0,-1,0,548)" d="M154.5085 87.59139V82.64529L168.6317 82.61328 157.1279 43.4073 163.3964 43.45861 174.5459 82.66993 174.5518 87.6373 154.5085 87.59139Z" fill="#ffa700" fill-opacity="0"/>
<path stroke-width="2.102077" stroke-linecap="butt" stroke-miterlimit="10" stroke-linejoin="miter" fill="none" stroke="#2f9b16" d="M154.5085 460.4086V465.3547L168.6317 465.3867 157.1279 504.5927 163.3964 504.5414 174.5459 465.3301 174.5518 460.3627 154.5085 460.4086Z"/>
<path transform="matrix(1,0,0,-1,0,548)" d="M225.0229 82.40641 229.967 87.61595 234.9798 87.6373 235.0037 43.4073 228.4375 43.42414 228.512 80.56974 225.0229 82.40641Z" fill="#ffa700" fill-opacity="0"/>
<path stroke-width="2.102077" stroke-linecap="butt" stroke-miterlimit="10" stroke-linejoin="miter" fill="none" stroke="#2f9b16" d="M225.0229 465.5936 229.967 460.384 234.9798 460.3627 235.0037 504.5927 228.4375 504.5759 228.512 467.4303 225.0229 465.5936Z"/>
<path transform="matrix(1,0,0,-1,0,548)" d="M192.2799 82.40641 197.224 87.61595 202.2367 87.6373 202.2606 43.4073 195.6944 43.42414 195.7689 80.56974 192.2799 82.40641Z" fill="#ffa700" fill-opacity="0"/>
<path stroke-width="2.102077" stroke-linecap="butt" stroke-miterlimit="10" stroke-linejoin="miter" fill="none" stroke="#2f9b16" d="M192.2799 465.5936 197.224 460.384 202.2367 460.3627 202.2606 504.5927 195.6944 504.5759 195.7689 467.4303 192.2799 465.5936Z"/>
</g>
<g clip-path="url(#clip_14)">
<g opacity=".9065">
<g clip-path="url(#clip_15)">
<g clip-path="url(#clip_16)">
<path transform="matrix(1,0,0,-1,0,548)" d="M259.0353 79.72492C259.0157 81.22012 260.4905 82.672 262.4722 82.67204 264.5082 82.67208 265.9866 81.22441 266.018 79.73439 266.1848 71.81477 266.006 51.17831 266.006 51.17831 266.0085 49.66511 264.4665 48.20617 262.4916 48.21136 260.4859 48.21664 259.0023 49.631 259.0085 51.17179L259.0353 79.72492Z" fill="#ffa700" fill-opacity="0"/>
<path stroke-width="2.102077" stroke-linecap="butt" stroke-miterlimit="10" stroke-linejoin="miter" fill="none" stroke="#2f9b16" d="M259.0353 468.2751C259.0157 466.7799 260.4905 465.328 262.4722 465.328 264.5082 465.3279 265.9866 466.7756 266.018 468.2656 266.1848 476.1852 266.006 496.8217 266.006 496.8217 266.0085 498.3349 264.4665 499.7938 262.4916 499.7886 260.4859 499.7834 259.0023 498.369 259.0085 496.8282L259.0353 468.2751Z"/>
</g>
</g>
</g>
</g>
<g clip-path="url(#clip_17)">
<g opacity=".9065">
<g clip-path="url(#clip_18)">
<g clip-path="url(#clip_19)">
<path transform="matrix(1,0,0,-1,0,548)" d="M252.9555 79.71771C253.0992 84.68318 256.9655 87.63995 262.2732 87.64 267.7264 87.64005 272.0322 84.66603 272.0786 79.62277L272.0566 51.74061C271.9513 45.80082 267.6145 43.40335 262.3251 43.41001 256.9531 43.41679 253.0577 45.85308 252.8823 51.84512L252.9555 79.71771Z" fill="#ffa700" fill-opacity="0"/>
<path stroke-width="2.102077" stroke-linecap="butt" stroke-miterlimit="10" stroke-linejoin="miter" fill="none" stroke="#2f9b16" d="M252.9555 468.2823C253.0992 463.3168 256.9655 460.36 262.2732 460.36 267.7264 460.3599 272.0322 463.334 272.0786 468.3772L272.0566 496.2594C271.9513 502.1992 267.6145 504.5967 262.3251 504.59 256.9531 504.5832 253.0577 502.1469 252.8823 496.1549L252.9555 468.2823Z"/>
</g>
</g>
</g>
</g>
</g>
</g>
</g>
</svg>
